<svg width="500" height="500" viewBox="0 0 500 500" fill="none" xmlns="http://www.w3.org/2000/svg">
<g clip-path="url(#clip0_3415_2)">
<mask id="mask0_3415_2" style="mask-type:luminance" maskUnits="userSpaceOnUse" x="0" y="0" width="500" height="500">
<path d="M500 0H0V500H500V0Z" fill="white"/>
</mask>
<g mask="url(#mask0_3415_2)">
<path d="M182.409 7.94336C193.079 7.17674 205.587 7.64063 215.556 7.63379H215.559L264.693 7.61816H264.709L298.752 7.67773H298.769C308.748 7.71684 320.644 7.66198 331.187 8.87012C369.05 13.2093 405.729 30.7745 433.532 56.3906L434.85 57.6162L434.87 57.6367C469.508 90.4562 489.989 135.45 492.026 183.065L492.109 185.335V185.347C492.806 209.541 492.365 235.921 492.328 260.229L492.326 265.062L492.354 298.095V298.1C492.355 305.647 492.499 314.661 491.901 322.695C488.857 364.512 471.371 403.971 442.437 434.313L442.438 434.314C410.456 468.127 364.384 490.809 317.219 492.067L317.22 492.068C289.848 492.834 260.869 492.353 233.721 492.327L198.988 492.328H198.983C186.759 492.32 174.994 492.441 162.005 490.214C125.41 483.942 94.433 468.646 67.1044 443.851L67.1005 443.848C31.5836 411.58 10.2538 366.586 7.75482 318.665L7.75385 318.645L7.75287 318.625C7.32227 309.428 7.57425 298.497 7.56928 289.685V289.684L7.54682 239.676V239.673L7.54193 203.476V203.474C7.54323 194.259 7.42008 183.308 8.25775 173.604L8.26068 173.573L8.26361 173.543C12.0641 133.342 29.0396 95.5226 56.5507 65.9648C89.1402 30.6826 134.421 9.81165 182.409 7.94336Z" fill="#081711" stroke="#05E6AA" stroke-width="15"/>
</g>
<path d="M293.743 119.002C293.216 119.009 292.671 119.035 292.132 119.077C270.681 122.785 258.883 145.499 257.176 165.53C254.679 183.709 262.68 207.064 282.61 211.142C285.503 211.694 288.503 211.442 291.329 210.674C315.332 202.615 326.069 174.152 322.602 150.579C321.59 135.35 310.128 118.793 293.743 119.002ZM202.794 119.976C189.451 120.304 179.061 133.851 176.947 146.585C172.491 171.814 183.952 203.161 210.202 211.142C212.663 211.676 215.202 211.73 217.687 211.346C235.432 208.384 242.947 188.47 242.205 172.388C241.672 151.178 230.665 126.652 208.669 120.689C206.656 120.155 204.698 119.93 202.794 119.976ZM351.868 191.633C328.794 193.018 312.972 216.074 310.715 237.601C307.666 253.126 315.931 273.897 333.627 275.138C358.294 274.832 375.128 248.436 375.823 225.722C377.386 210.701 368.547 192.466 351.868 191.633ZM149.884 196.754C140.067 196.67 130.411 202.558 127.203 212.548C118.644 239.28 135.832 273.135 164.107 278.754C175.909 280.775 186.276 271.702 189.204 260.783C195.403 237.427 182.668 210.312 161.113 199.71C157.602 197.737 153.727 196.784 149.884 196.754ZM253.338 244.683C234.09 244.725 214.543 254.505 202.081 269.064C188.619 286.034 177.593 305.78 173.279 327.193C168.038 342.603 179.916 360.346 196.374 360.454C216.172 361 233.186 347.388 252.871 346.381C269.573 343.832 284.526 352.527 299.546 358.224C312.332 363.698 329.998 361.6 336.526 347.82C341.658 333.783 334.1 318.804 327.842 306.337C315.074 286.093 301.39 264.818 280.454 252.178C272.064 246.973 262.74 244.665 253.338 244.683Z" fill="#05E6AA"/>
</g>
<defs>
<clipPath id="clip0_3415_2">
<rect width="500" height="500" fill="white"/>
</clipPath>
</defs>
</svg>
